<svg width="449" height="185" viewBox="0 0 449 185" fill="none" xmlns="http://www.w3.org/2000/svg">
<rect width="215.78" height="120" transform="translate(116.611)" fill="white" fill-opacity="0.01"/>
<path d="M130.268 93.4162V66.0796H141.345V93.4162H130.268Z" fill="#00AFAC"/>
<path d="M188.204 77.7931H187.839L167.953 48.0092V93.4162H156.875V29.8464H168.773L188.116 59.9074L207.459 29.8464H219.357V93.4162H208.28V47.8245L188.204 77.7931Z" fill="#00AFAC"/>
<path d="M244.427 82.3803C246.91 84.4685 249.937 85.5152 253.508 85.5152C256.232 85.5152 258.593 85.0329 260.594 84.0632C262.589 83.0935 264.56 81.6723 266.499 79.7944L272.948 85.5152C270.645 88.2396 267.91 90.4202 264.729 92.0517C261.553 93.6884 257.751 94.5042 253.334 94.5042C249.881 94.5042 246.658 93.8988 243.662 92.688C240.666 91.4771 238.059 89.784 235.853 87.6034C233.642 85.4228 231.902 82.8062 230.63 79.7482C229.358 76.6903 228.721 73.2886 228.721 69.5329C228.721 66.08 229.296 62.8425 230.445 59.8153C231.595 56.7882 233.216 54.1407 235.304 51.8678C237.392 49.6 239.86 47.7991 242.708 46.4652C245.55 45.1363 248.701 44.4693 252.153 44.4693C255.966 44.4693 259.311 45.1671 262.189 46.5575C265.062 47.9531 267.458 49.8258 269.362 52.1859C271.271 54.5461 272.707 57.3013 273.677 60.4515C274.647 63.6018 275.129 66.9009 275.129 70.3487C275.129 70.8362 275.114 71.3184 275.083 71.8007C275.052 72.2882 275.006 72.8012 274.944 73.3451H239.706C240.373 77.2804 241.943 80.2921 244.427 82.3803ZM264.226 66.08C264.047 64.3252 263.651 62.6732 263.046 61.1288C262.441 59.5844 261.625 58.2556 260.594 57.132C259.562 56.0135 258.336 55.1207 256.915 54.4537C255.494 53.7867 253.872 53.4532 252.056 53.4532C248.665 53.4532 245.863 54.6179 243.657 56.9472C241.446 59.2766 240.101 62.3191 239.614 66.0748H264.226V66.08Z" fill="#00AFAC"/>
<path d="M320.202 93.4162V85.4226C318.447 87.9058 316.261 90.0248 313.634 91.7795C311.007 93.5342 307.76 94.4116 303.896 94.4116C301.054 94.4116 298.309 93.8677 295.651 92.7749C292.993 91.6872 290.638 90.0659 288.586 87.9161C286.534 85.7663 284.871 83.1496 283.604 80.0609C282.337 76.9722 281.701 73.432 281.701 69.4352C281.701 65.4383 282.322 61.8981 283.558 58.8094C284.795 55.7207 286.441 53.104 288.499 50.9543C290.551 48.8045 292.922 47.1832 295.61 46.0955C298.299 45.0077 301.059 44.4588 303.901 44.4588C307.826 44.4588 311.09 45.3053 313.686 47.0036C316.282 48.7019 318.457 50.6669 320.212 52.9039V25.3211H331.289V93.406H320.202V93.4162ZM319.253 63.0833C318.498 61.2055 317.488 59.5893 316.22 58.2245C314.953 56.8649 313.475 55.8182 311.787 55.0896C310.099 54.3611 308.35 54.0019 306.539 54.0019C304.671 54.0019 302.901 54.3508 301.244 55.0486C299.586 55.7464 298.119 56.7571 296.852 58.0911C295.584 59.4251 294.589 61.0413 293.866 62.9499C293.142 64.8586 292.778 67.0237 292.778 69.4454C292.778 71.8056 293.142 73.94 293.866 75.8486C294.589 77.7572 295.584 79.3785 296.852 80.7074C298.119 82.0414 299.581 83.0675 301.244 83.7961C302.906 84.5247 304.671 84.8838 306.539 84.8838C308.35 84.8838 310.099 84.5195 311.787 83.7961C313.475 83.0675 314.953 82.026 316.22 80.6612C317.488 79.2964 318.498 77.6803 319.253 75.8024C320.007 73.9246 320.386 71.8056 320.386 69.4454C320.381 67.0802 320.007 64.9612 319.253 63.0833Z" fill="#00AFAC"/>
<path d="M136.068 37.6616C140.364 37.6616 143.851 41.1944 143.851 45.5329C143.851 49.8714 140.358 53.4042 136.068 53.4042C131.778 53.4042 128.284 49.877 128.284 45.5329C128.284 41.1887 131.778 37.6616 136.068 37.6616ZM136.068 28.0831C126.54 28.0831 118.812 35.898 118.812 45.5329C118.812 55.1677 126.54 62.9827 136.068 62.9827C145.595 62.9827 153.323 55.1677 153.323 45.5329C153.323 35.898 145.601 28.0831 136.068 28.0831Z" fill="#00AFAC"/>
<path d="M47.8931 128.5V114.44H50.6131V128.5H47.8931ZM49.8931 128.5V126.08H57.0531V128.5H49.8931ZM62.5125 128.7C61.6325 128.7 60.8392 128.48 60.1325 128.04C59.4258 127.6 58.8725 127 58.4725 126.24C58.0725 125.48 57.8725 124.627 57.8725 123.68C57.8725 122.72 58.0725 121.86 58.4725 121.1C58.8725 120.34 59.4258 119.74 60.1325 119.3C60.8392 118.86 61.6325 118.64 62.5125 118.64C63.2058 118.64 63.8258 118.78 64.3725 119.06C64.9192 119.34 65.3525 119.733 65.6725 120.24C66.0058 120.733 66.1858 121.293 66.2125 121.92V125.4C66.1858 126.04 66.0058 126.607 65.6725 127.1C65.3525 127.593 64.9192 127.987 64.3725 128.28C63.8258 128.56 63.2058 128.7 62.5125 128.7ZM62.9925 126.28C63.7258 126.28 64.3192 126.04 64.7725 125.56C65.2258 125.067 65.4525 124.433 65.4525 123.66C65.4525 123.153 65.3458 122.707 65.1325 122.32C64.9325 121.92 64.6458 121.613 64.2725 121.4C63.9125 121.173 63.4858 121.06 62.9925 121.06C62.5125 121.06 62.0858 121.173 61.7125 121.4C61.3525 121.613 61.0658 121.92 60.8525 122.32C60.6525 122.707 60.5525 123.153 60.5525 123.66C60.5525 124.18 60.6525 124.64 60.8525 125.04C61.0658 125.427 61.3525 125.733 61.7125 125.96C62.0858 126.173 62.5125 126.28 62.9925 126.28ZM65.3125 128.5V125.9L65.7325 123.54L65.3125 121.22V118.84H67.9125V128.5H65.3125ZM77.4566 128.72C76.9099 128.72 76.3699 128.647 75.8366 128.5C75.3166 128.353 74.8366 128.153 74.3966 127.9C73.9566 127.633 73.5766 127.313 73.2566 126.94L74.8166 125.36C75.1499 125.733 75.5366 126.013 75.9766 126.2C76.4166 126.387 76.9032 126.48 77.4366 126.48C77.8632 126.48 78.1832 126.42 78.3966 126.3C78.6232 126.18 78.7366 126 78.7366 125.76C78.7366 125.493 78.6166 125.287 78.3766 125.14C78.1499 124.993 77.8499 124.873 77.4766 124.78C77.1032 124.673 76.7099 124.56 76.2966 124.44C75.8966 124.307 75.5099 124.14 75.1366 123.94C74.7632 123.727 74.4566 123.44 74.2166 123.08C73.9899 122.707 73.8766 122.227 73.8766 121.64C73.8766 121.027 74.0232 120.493 74.3166 120.04C74.6232 119.587 75.0566 119.233 75.6166 118.98C76.1766 118.727 76.8366 118.6 77.5966 118.6C78.3966 118.6 79.1166 118.74 79.7566 119.02C80.4099 119.3 80.9499 119.72 81.3766 120.28L79.7966 121.86C79.5032 121.5 79.1699 121.24 78.7966 121.08C78.4366 120.92 78.0432 120.84 77.6166 120.84C77.2299 120.84 76.9299 120.9 76.7166 121.02C76.5166 121.14 76.4166 121.307 76.4166 121.52C76.4166 121.76 76.5299 121.947 76.7566 122.08C76.9966 122.213 77.3032 122.333 77.6766 122.44C78.0499 122.533 78.4366 122.647 78.8366 122.78C79.2499 122.9 79.6366 123.073 79.9966 123.3C80.3699 123.527 80.6699 123.827 80.8966 124.2C81.1366 124.573 81.2566 125.053 81.2566 125.64C81.2566 126.587 80.9166 127.34 80.2366 127.9C79.5566 128.447 78.6299 128.72 77.4566 128.72ZM87.5633 128.7C86.5899 128.7 85.7099 128.48 84.9233 128.04C84.1499 127.587 83.5299 126.98 83.0633 126.22C82.6099 125.447 82.3833 124.587 82.3833 123.64C82.3833 122.693 82.6099 121.847 83.0633 121.1C83.5166 120.34 84.1366 119.74 84.9233 119.3C85.7099 118.847 86.5833 118.62 87.5433 118.62C88.5299 118.62 89.4099 118.847 90.1833 119.3C90.9699 119.74 91.5899 120.34 92.0433 121.1C92.4966 121.847 92.7233 122.693 92.7233 123.64C92.7233 124.587 92.4966 125.447 92.0433 126.22C91.5899 126.98 90.9699 127.587 90.1833 128.04C89.4099 128.48 88.5366 128.7 87.5633 128.7ZM87.5433 126.26C88.0366 126.26 88.4699 126.153 88.8433 125.94C89.2299 125.713 89.5233 125.407 89.7233 125.02C89.9366 124.62 90.0433 124.167 90.0433 123.66C90.0433 123.153 89.9366 122.707 89.7233 122.32C89.5099 121.933 89.2166 121.633 88.8433 121.42C88.4699 121.193 88.0366 121.08 87.5433 121.08C87.0633 121.08 86.6366 121.193 86.2633 121.42C85.8899 121.633 85.5966 121.933 85.3833 122.32C85.1699 122.707 85.0633 123.153 85.0633 123.66C85.0633 124.167 85.1699 124.62 85.3833 125.02C85.5966 125.407 85.8899 125.713 86.2633 125.94C86.6366 126.153 87.0633 126.26 87.5433 126.26ZM94.41 128.5V114.04H97.03V128.5H94.41ZM103.471 128.7C102.618 128.7 101.858 128.52 101.191 128.16C100.538 127.8 100.025 127.3 99.6514 126.66C99.2781 126.02 99.0914 125.28 99.0914 124.44V118.84H101.731V124.38C101.731 124.78 101.798 125.127 101.931 125.42C102.065 125.7 102.265 125.913 102.531 126.06C102.798 126.207 103.111 126.28 103.471 126.28C104.018 126.28 104.445 126.113 104.751 125.78C105.058 125.447 105.211 124.98 105.211 124.38V118.84H107.831V124.44C107.831 125.293 107.645 126.04 107.271 126.68C106.911 127.32 106.398 127.82 105.731 128.18C105.078 128.527 104.325 128.7 103.471 128.7ZM109.238 127L114.358 120.34H117.518L112.398 127H109.238ZM109.238 128.5V127L111.318 126.22H117.398V128.5H109.238ZM109.598 121.12V118.84H117.518V120.34L115.418 121.12H109.598ZM119.234 128.5V118.84H121.874V128.5H119.234ZM120.554 117.28C120.128 117.28 119.774 117.14 119.494 116.86C119.214 116.567 119.074 116.207 119.074 115.78C119.074 115.367 119.214 115.013 119.494 114.72C119.774 114.427 120.128 114.28 120.554 114.28C120.994 114.28 121.348 114.427 121.614 114.72C121.894 115.013 122.034 115.367 122.034 115.78C122.034 116.207 121.894 116.567 121.614 116.86C121.348 117.14 120.994 117.28 120.554 117.28ZM128.735 128.7C127.762 128.7 126.882 128.48 126.095 128.04C125.322 127.587 124.702 126.98 124.235 126.22C123.782 125.447 123.555 124.587 123.555 123.64C123.555 122.693 123.782 121.847 124.235 121.1C124.688 120.34 125.308 119.74 126.095 119.3C126.882 118.847 127.755 118.62 128.715 118.62C129.702 118.62 130.582 118.847 131.355 119.3C132.142 119.74 132.762 120.34 133.215 121.1C133.668 121.847 133.895 122.693 133.895 123.64C133.895 124.587 133.668 125.447 133.215 126.22C132.762 126.98 132.142 127.587 131.355 128.04C130.582 128.48 129.708 128.7 128.735 128.7ZM128.715 126.26C129.208 126.26 129.642 126.153 130.015 125.94C130.402 125.713 130.695 125.407 130.895 125.02C131.108 124.62 131.215 124.167 131.215 123.66C131.215 123.153 131.108 122.707 130.895 122.32C130.682 121.933 130.388 121.633 130.015 121.42C129.642 121.193 129.208 121.08 128.715 121.08C128.235 121.08 127.808 121.193 127.435 121.42C127.062 121.633 126.768 121.933 126.555 122.32C126.342 122.707 126.235 123.153 126.235 123.66C126.235 124.167 126.342 124.62 126.555 125.02C126.768 125.407 127.062 125.713 127.435 125.94C127.808 126.153 128.235 126.26 128.715 126.26ZM142.082 128.5V122.96C142.082 122.387 141.902 121.92 141.542 121.56C141.182 121.2 140.715 121.02 140.142 121.02C139.769 121.02 139.435 121.1 139.142 121.26C138.849 121.42 138.615 121.647 138.442 121.94C138.282 122.233 138.202 122.573 138.202 122.96L137.182 122.44C137.182 121.68 137.342 121.02 137.662 120.46C137.995 119.887 138.449 119.44 139.022 119.12C139.609 118.8 140.269 118.64 141.002 118.64C141.709 118.64 142.342 118.82 142.902 119.18C143.462 119.527 143.902 119.987 144.222 120.56C144.542 121.12 144.702 121.727 144.702 122.38V128.5H142.082ZM135.582 128.5V118.84H138.202V128.5H135.582ZM151.432 128.7C150.419 128.7 149.519 128.487 148.732 128.06C147.946 127.62 147.319 127.02 146.852 126.26C146.399 125.5 146.172 124.633 146.172 123.66C146.172 122.7 146.392 121.847 146.832 121.1C147.286 120.34 147.899 119.74 148.672 119.3C149.446 118.847 150.306 118.62 151.252 118.62C152.186 118.62 153.006 118.833 153.712 119.26C154.432 119.673 154.992 120.247 155.392 120.98C155.806 121.7 156.012 122.52 156.012 123.44C156.012 123.613 155.999 123.793 155.972 123.98C155.959 124.153 155.926 124.353 155.872 124.58L147.752 124.6V122.64L154.652 122.62L153.592 123.44C153.566 122.867 153.459 122.387 153.272 122C153.099 121.613 152.839 121.32 152.492 121.12C152.159 120.907 151.746 120.8 151.252 120.8C150.732 120.8 150.279 120.92 149.892 121.16C149.506 121.387 149.206 121.713 148.992 122.14C148.792 122.553 148.692 123.047 148.692 123.62C148.692 124.207 148.799 124.72 149.012 125.16C149.239 125.587 149.559 125.92 149.972 126.16C150.386 126.387 150.866 126.5 151.412 126.5C151.906 126.5 152.352 126.42 152.752 126.26C153.152 126.087 153.499 125.833 153.792 125.5L155.332 127.04C154.866 127.587 154.292 128 153.612 128.28C152.946 128.56 152.219 128.7 151.432 128.7ZM164.859 128.72C164.312 128.72 163.772 128.647 163.239 128.5C162.719 128.353 162.239 128.153 161.799 127.9C161.359 127.633 160.979 127.313 160.659 126.94L162.219 125.36C162.552 125.733 162.939 126.013 163.379 126.2C163.819 126.387 164.306 126.48 164.839 126.48C165.266 126.48 165.586 126.42 165.799 126.3C166.026 126.18 166.139 126 166.139 125.76C166.139 125.493 166.019 125.287 165.779 125.14C165.552 124.993 165.252 124.873 164.879 124.78C164.506 124.673 164.112 124.56 163.699 124.44C163.299 124.307 162.912 124.14 162.539 123.94C162.166 123.727 161.859 123.44 161.619 123.08C161.392 122.707 161.279 122.227 161.279 121.64C161.279 121.027 161.426 120.493 161.719 120.04C162.026 119.587 162.459 119.233 163.019 118.98C163.579 118.727 164.239 118.6 164.999 118.6C165.799 118.6 166.519 118.74 167.159 119.02C167.812 119.3 168.352 119.72 168.779 120.28L167.199 121.86C166.906 121.5 166.572 121.24 166.199 121.08C165.839 120.92 165.446 120.84 165.019 120.84C164.632 120.84 164.332 120.9 164.119 121.02C163.919 121.14 163.819 121.307 163.819 121.52C163.819 121.76 163.932 121.947 164.159 122.08C164.399 122.213 164.706 122.333 165.079 122.44C165.452 122.533 165.839 122.647 166.239 122.78C166.652 122.9 167.039 123.073 167.399 123.3C167.772 123.527 168.072 123.827 168.299 124.2C168.539 124.573 168.659 125.053 168.659 125.64C168.659 126.587 168.319 127.34 167.639 127.9C166.959 128.447 166.032 128.72 164.859 128.72ZM170.426 128.5V118.84H173.046V128.5H170.426ZM176.726 128.5V122.8C176.726 122.24 176.546 121.807 176.186 121.5C175.839 121.18 175.406 121.02 174.886 121.02C174.539 121.02 174.226 121.093 173.946 121.24C173.666 121.373 173.446 121.573 173.286 121.84C173.126 122.107 173.046 122.427 173.046 122.8L172.026 122.3C172.026 121.553 172.186 120.907 172.506 120.36C172.839 119.813 173.286 119.393 173.846 119.1C174.406 118.793 175.039 118.64 175.746 118.64C176.412 118.64 177.019 118.793 177.566 119.1C178.112 119.393 178.546 119.813 178.866 120.36C179.186 120.893 179.346 121.54 179.346 122.3V128.5H176.726ZM183.026 128.5V122.8C183.026 122.24 182.846 121.807 182.486 121.5C182.139 121.18 181.706 121.02 181.186 121.02C180.852 121.02 180.539 121.093 180.246 121.24C179.966 121.373 179.746 121.573 179.586 121.84C179.426 122.107 179.346 122.427 179.346 122.8L177.846 122.44C177.899 121.667 178.106 121 178.466 120.44C178.826 119.867 179.299 119.427 179.886 119.12C180.472 118.8 181.126 118.64 181.846 118.64C182.566 118.64 183.212 118.793 183.786 119.1C184.359 119.393 184.812 119.82 185.146 120.38C185.479 120.94 185.646 121.607 185.646 122.38V128.5H183.026ZM191.809 128.7C190.929 128.7 190.136 128.48 189.429 128.04C188.723 127.6 188.169 127 187.769 126.24C187.369 125.48 187.169 124.627 187.169 123.68C187.169 122.72 187.369 121.86 187.769 121.1C188.169 120.34 188.723 119.74 189.429 119.3C190.136 118.86 190.929 118.64 191.809 118.64C192.503 118.64 193.123 118.78 193.669 119.06C194.216 119.34 194.649 119.733 194.969 120.24C195.303 120.733 195.483 121.293 195.509 121.92V125.4C195.483 126.04 195.303 126.607 194.969 127.1C194.649 127.593 194.216 127.987 193.669 128.28C193.123 128.56 192.503 128.7 191.809 128.7ZM192.289 126.28C193.023 126.28 193.616 126.04 194.069 125.56C194.523 125.067 194.749 124.433 194.749 123.66C194.749 123.153 194.643 122.707 194.429 122.32C194.229 121.92 193.943 121.613 193.569 121.4C193.209 121.173 192.783 121.06 192.289 121.06C191.809 121.06 191.383 121.173 191.009 121.4C190.649 121.613 190.363 121.92 190.149 122.32C189.949 122.707 189.849 123.153 189.849 123.66C189.849 124.18 189.949 124.64 190.149 125.04C190.363 125.427 190.649 125.733 191.009 125.96C191.383 126.173 191.809 126.28 192.289 126.28ZM194.609 128.5V125.9L195.029 123.54L194.609 121.22V118.84H197.209V128.5H194.609ZM199.527 128.5V118.84H202.147V128.5H199.527ZM202.147 123.16L201.127 122.48C201.247 121.293 201.594 120.36 202.167 119.68C202.741 118.987 203.567 118.64 204.647 118.64C205.114 118.64 205.534 118.72 205.907 118.88C206.281 119.027 206.621 119.273 206.927 119.62L205.287 121.5C205.141 121.34 204.961 121.22 204.747 121.14C204.547 121.06 204.314 121.02 204.047 121.02C203.487 121.02 203.027 121.2 202.667 121.56C202.321 121.907 202.147 122.44 202.147 123.16ZM209.326 128.5V114.82H211.946V128.5H209.326ZM207.066 121.14V118.84H214.206V121.14H207.066ZM224.946 128.7C224.252 128.7 223.626 128.56 223.066 128.28C222.506 127.987 222.059 127.593 221.726 127.1C221.392 126.607 221.212 126.04 221.186 125.4V121.98C221.212 121.34 221.392 120.773 221.726 120.28C222.072 119.773 222.519 119.373 223.066 119.08C223.626 118.787 224.252 118.64 224.946 118.64C225.839 118.64 226.639 118.86 227.346 119.3C228.052 119.74 228.606 120.34 229.006 121.1C229.419 121.86 229.626 122.72 229.626 123.68C229.626 124.627 229.419 125.48 229.006 126.24C228.606 127 228.052 127.6 227.346 128.04C226.639 128.48 225.839 128.7 224.946 128.7ZM219.586 132.54V118.84H222.206V121.38L221.766 123.72L222.186 126.06V132.54H219.586ZM224.486 126.28C224.966 126.28 225.392 126.173 225.766 125.96C226.139 125.733 226.426 125.427 226.626 125.04C226.839 124.64 226.946 124.18 226.946 123.66C226.946 123.153 226.839 122.707 226.626 122.32C226.426 121.92 226.139 121.613 225.766 121.4C225.392 121.173 224.966 121.06 224.486 121.06C224.019 121.06 223.599 121.173 223.226 121.4C222.852 121.613 222.559 121.92 222.346 122.32C222.146 122.707 222.046 123.153 222.046 123.66C222.046 124.18 222.146 124.64 222.346 125.04C222.559 125.427 222.846 125.733 223.206 125.96C223.579 126.173 224.006 126.28 224.486 126.28ZM235.964 128.7C234.95 128.7 234.05 128.487 233.264 128.06C232.477 127.62 231.85 127.02 231.384 126.26C230.93 125.5 230.704 124.633 230.704 123.66C230.704 122.7 230.924 121.847 231.364 121.1C231.817 120.34 232.43 119.74 233.204 119.3C233.977 118.847 234.837 118.62 235.784 118.62C236.717 118.62 237.537 118.833 238.244 119.26C238.964 119.673 239.524 120.247 239.924 120.98C240.337 121.7 240.544 122.52 240.544 123.44C240.544 123.613 240.53 123.793 240.504 123.98C240.49 124.153 240.457 124.353 240.404 124.58L232.284 124.6V122.64L239.184 122.62L238.124 123.44C238.097 122.867 237.99 122.387 237.804 122C237.63 121.613 237.37 121.32 237.024 121.12C236.69 120.907 236.277 120.8 235.784 120.8C235.264 120.8 234.81 120.92 234.424 121.16C234.037 121.387 233.737 121.713 233.524 122.14C233.324 122.553 233.224 123.047 233.224 123.62C233.224 124.207 233.33 124.72 233.544 125.16C233.77 125.587 234.09 125.92 234.504 126.16C234.917 126.387 235.397 126.5 235.944 126.5C236.437 126.5 236.884 126.42 237.284 126.26C237.684 126.087 238.03 125.833 238.324 125.5L239.864 127.04C239.397 127.587 238.824 128 238.144 128.28C237.477 128.56 236.75 128.7 235.964 128.7ZM242.164 128.5V118.84H244.784V128.5H242.164ZM244.784 123.16L243.764 122.48C243.884 121.293 244.231 120.36 244.804 119.68C245.377 118.987 246.204 118.64 247.284 118.64C247.751 118.64 248.171 118.72 248.544 118.88C248.917 119.027 249.257 119.273 249.564 119.62L247.924 121.5C247.777 121.34 247.597 121.22 247.384 121.14C247.184 121.06 246.951 121.02 246.684 121.02C246.124 121.02 245.664 121.2 245.304 121.56C244.957 121.907 244.784 122.44 244.784 123.16ZM254.742 128.5V114.04H257.362V128.5H254.742ZM263.723 128.7C262.843 128.7 262.05 128.48 261.343 128.04C260.637 127.6 260.083 127 259.683 126.24C259.283 125.48 259.083 124.627 259.083 123.68C259.083 122.72 259.283 121.86 259.683 121.1C260.083 120.34 260.637 119.74 261.343 119.3C262.05 118.86 262.843 118.64 263.723 118.64C264.417 118.64 265.037 118.78 265.583 119.06C266.13 119.34 266.563 119.733 266.883 120.24C267.217 120.733 267.397 121.293 267.423 121.92V125.4C267.397 126.04 267.217 126.607 266.883 127.1C266.563 127.593 266.13 127.987 265.583 128.28C265.037 128.56 264.417 128.7 263.723 128.7ZM264.203 126.28C264.937 126.28 265.53 126.04 265.983 125.56C266.437 125.067 266.663 124.433 266.663 123.66C266.663 123.153 266.557 122.707 266.343 122.32C266.143 121.92 265.857 121.613 265.483 121.4C265.123 121.173 264.697 121.06 264.203 121.06C263.723 121.06 263.297 121.173 262.923 121.4C262.563 121.613 262.277 121.92 262.063 122.32C261.863 122.707 261.763 123.153 261.763 123.66C261.763 124.18 261.863 124.64 262.063 125.04C262.277 125.427 262.563 125.733 262.923 125.96C263.297 126.173 263.723 126.28 264.203 126.28ZM266.523 128.5V125.9L266.943 123.54L266.523 121.22V118.84H269.123V128.5H266.523ZM278.668 128.72C278.121 128.72 277.581 128.647 277.048 128.5C276.528 128.353 276.048 128.153 275.608 127.9C275.168 127.633 274.788 127.313 274.468 126.94L276.028 125.36C276.361 125.733 276.748 126.013 277.188 126.2C277.628 126.387 278.114 126.48 278.648 126.48C279.074 126.48 279.394 126.42 279.608 126.3C279.834 126.18 279.948 126 279.948 125.76C279.948 125.493 279.828 125.287 279.588 125.14C279.361 124.993 279.061 124.873 278.688 124.78C278.314 124.673 277.921 124.56 277.508 124.44C277.108 124.307 276.721 124.14 276.348 123.94C275.974 123.727 275.668 123.44 275.428 123.08C275.201 122.707 275.088 122.227 275.088 121.64C275.088 121.027 275.234 120.493 275.528 120.04C275.834 119.587 276.268 119.233 276.827 118.98C277.388 118.727 278.048 118.6 278.808 118.6C279.608 118.6 280.328 118.74 280.968 119.02C281.621 119.3 282.161 119.72 282.588 120.28L281.008 121.86C280.714 121.5 280.381 121.24 280.008 121.08C279.648 120.92 279.254 120.84 278.828 120.84C278.441 120.84 278.141 120.9 277.928 121.02C277.728 121.14 277.628 121.307 277.628 121.52C277.628 121.76 277.741 121.947 277.968 122.08C278.208 122.213 278.514 122.333 278.888 122.44C279.261 122.533 279.648 122.647 280.048 122.78C280.461 122.9 280.848 123.073 281.208 123.3C281.581 123.527 281.881 123.827 282.108 124.2C282.348 124.573 282.468 125.053 282.468 125.64C282.468 126.587 282.128 127.34 281.448 127.9C280.768 128.447 279.841 128.72 278.668 128.72ZM288.274 128.7C287.394 128.7 286.601 128.48 285.894 128.04C285.188 127.6 284.634 127 284.234 126.24C283.834 125.48 283.634 124.627 283.634 123.68C283.634 122.72 283.834 121.86 284.234 121.1C284.634 120.34 285.188 119.74 285.894 119.3C286.601 118.86 287.394 118.64 288.274 118.64C288.968 118.64 289.588 118.78 290.134 119.06C290.681 119.34 291.114 119.733 291.434 120.24C291.768 120.733 291.948 121.293 291.974 121.92V125.4C291.948 126.04 291.768 126.607 291.434 127.1C291.114 127.593 290.681 127.987 290.134 128.28C289.588 128.56 288.968 128.7 288.274 128.7ZM288.754 126.28C289.488 126.28 290.081 126.04 290.534 125.56C290.988 125.067 291.214 124.433 291.214 123.66C291.214 123.153 291.108 122.707 290.894 122.32C290.694 121.92 290.408 121.613 290.034 121.4C289.674 121.173 289.248 121.06 288.754 121.06C288.274 121.06 287.848 121.173 287.474 121.4C287.114 121.613 286.828 121.92 286.614 122.32C286.414 122.707 286.314 123.153 286.314 123.66C286.314 124.18 286.414 124.64 286.614 125.04C286.828 125.427 287.114 125.733 287.474 125.96C287.848 126.173 288.274 126.28 288.754 126.28ZM291.074 128.5V125.9L291.494 123.54L291.074 121.22V118.84H293.674V128.5H291.074ZM302.492 128.5V122.96C302.492 122.387 302.312 121.92 301.952 121.56C301.592 121.2 301.125 121.02 300.552 121.02C300.179 121.02 299.845 121.1 299.552 121.26C299.259 121.42 299.025 121.647 298.852 121.94C298.692 122.233 298.612 122.573 298.612 122.96L297.592 122.44C297.592 121.68 297.752 121.02 298.072 120.46C298.405 119.887 298.859 119.44 299.432 119.12C300.019 118.8 300.679 118.64 301.412 118.64C302.119 118.64 302.752 118.82 303.312 119.18C303.872 119.527 304.312 119.987 304.632 120.56C304.952 121.12 305.112 121.727 305.112 122.38V128.5H302.492ZM295.992 128.5V118.84H298.612V128.5H295.992ZM307.223 128.5V118.84H309.863V128.5H307.223ZM308.543 117.28C308.116 117.28 307.763 117.14 307.483 116.86C307.203 116.567 307.063 116.207 307.063 115.78C307.063 115.367 307.203 115.013 307.483 114.72C307.763 114.427 308.116 114.28 308.543 114.28C308.983 114.28 309.336 114.427 309.603 114.72C309.883 115.013 310.023 115.367 310.023 115.78C310.023 116.207 309.883 116.567 309.603 116.86C309.336 117.14 308.983 117.28 308.543 117.28ZM313.603 128.5V114.82H316.223V128.5H313.603ZM311.343 121.14V118.84H318.483V121.14H311.343ZM323.763 128.7C322.883 128.7 322.089 128.48 321.383 128.04C320.676 127.6 320.123 127 319.723 126.24C319.323 125.48 319.123 124.627 319.123 123.68C319.123 122.72 319.323 121.86 319.723 121.1C320.123 120.34 320.676 119.74 321.383 119.3C322.089 118.86 322.883 118.64 323.763 118.64C324.456 118.64 325.076 118.78 325.623 119.06C326.169 119.34 326.603 119.733 326.923 120.24C327.256 120.733 327.436 121.293 327.463 121.92V125.4C327.436 126.04 327.256 126.607 326.923 127.1C326.603 127.593 326.169 127.987 325.623 128.28C325.076 128.56 324.456 128.7 323.763 128.7ZM324.243 126.28C324.976 126.28 325.569 126.04 326.023 125.56C326.476 125.067 326.703 124.433 326.703 123.66C326.703 123.153 326.596 122.707 326.383 122.32C326.183 121.92 325.896 121.613 325.523 121.4C325.163 121.173 324.736 121.06 324.243 121.06C323.763 121.06 323.336 121.173 322.963 121.4C322.603 121.613 322.316 121.92 322.103 122.32C321.903 122.707 321.803 123.153 321.803 123.66C321.803 124.18 321.903 124.64 322.103 125.04C322.316 125.427 322.603 125.733 322.963 125.96C323.336 126.173 323.763 126.28 324.243 126.28ZM326.563 128.5V125.9L326.983 123.54L326.563 121.22V118.84H329.163V128.5H326.563ZM325.423 117.7L321.863 115.38L323.562 113.34L326.423 116.46L325.423 117.7ZM339.467 128.7C338.573 128.7 337.773 128.48 337.067 128.04C336.36 127.6 335.8 127 335.387 126.24C334.987 125.48 334.787 124.627 334.787 123.68C334.787 122.72 334.987 121.86 335.387 121.1C335.8 120.34 336.353 119.74 337.047 119.3C337.753 118.86 338.56 118.64 339.467 118.64C340.16 118.64 340.78 118.78 341.327 119.06C341.887 119.34 342.333 119.733 342.667 120.24C343.013 120.733 343.2 121.293 343.227 121.92V125.36C343.2 125.987 343.02 126.553 342.687 127.06C342.353 127.567 341.907 127.967 341.347 128.26C340.787 128.553 340.16 128.7 339.467 128.7ZM339.907 126.28C340.4 126.28 340.827 126.173 341.187 125.96C341.56 125.733 341.847 125.427 342.047 125.04C342.26 124.64 342.367 124.18 342.367 123.66C342.367 123.153 342.26 122.707 342.047 122.32C341.847 121.92 341.56 121.613 341.187 121.4C340.827 121.173 340.407 121.06 339.927 121.06C339.433 121.06 339 121.173 338.627 121.4C338.267 121.627 337.98 121.933 337.767 122.32C337.567 122.707 337.467 123.153 337.467 123.66C337.467 124.18 337.567 124.64 337.767 125.04C337.98 125.427 338.273 125.733 338.647 125.96C339.02 126.173 339.44 126.28 339.907 126.28ZM344.827 128.5H342.227V125.9L342.647 123.54L342.207 121.22V114.04H344.827V128.5ZM347.144 128.5V118.84H349.784V128.5H347.144ZM348.464 117.28C348.038 117.28 347.684 117.14 347.404 116.86C347.124 116.567 346.984 116.207 346.984 115.78C346.984 115.367 347.124 115.013 347.404 114.72C347.684 114.427 348.038 114.28 348.464 114.28C348.904 114.28 349.258 114.427 349.524 114.72C349.804 115.013 349.944 115.367 349.944 115.78C349.944 116.207 349.804 116.567 349.524 116.86C349.258 117.14 348.904 117.28 348.464 117.28ZM356.145 132.78C355.119 132.78 354.212 132.593 353.425 132.22C352.639 131.86 352.012 131.347 351.545 130.68L353.205 129.02C353.579 129.46 353.992 129.793 354.445 130.02C354.912 130.26 355.472 130.38 356.125 130.38C356.939 130.38 357.579 130.173 358.045 129.76C358.525 129.347 358.765 128.773 358.765 128.04V125.62L359.205 123.5L358.785 121.38V118.84H361.385V128C361.385 128.96 361.159 129.793 360.705 130.5C360.265 131.22 359.652 131.78 358.865 132.18C358.079 132.58 357.172 132.78 356.145 132.78ZM356.025 128.24C355.159 128.24 354.379 128.033 353.685 127.62C352.992 127.193 352.445 126.613 352.045 125.88C351.659 125.147 351.465 124.327 351.465 123.42C351.465 122.513 351.659 121.7 352.045 120.98C352.445 120.26 352.992 119.693 353.685 119.28C354.379 118.853 355.159 118.64 356.025 118.64C356.745 118.64 357.379 118.78 357.925 119.06C358.485 119.34 358.925 119.727 359.245 120.22C359.565 120.7 359.739 121.267 359.765 121.92V124.96C359.739 125.6 359.559 126.173 359.225 126.68C358.905 127.173 358.465 127.56 357.905 127.84C357.359 128.107 356.732 128.24 356.025 128.24ZM356.545 125.86C357.025 125.86 357.439 125.76 357.785 125.56C358.145 125.347 358.425 125.06 358.625 124.7C358.825 124.327 358.925 123.907 358.925 123.44C358.925 122.96 358.825 122.54 358.625 122.18C358.425 121.82 358.145 121.54 357.785 121.34C357.439 121.127 357.025 121.02 356.545 121.02C356.065 121.02 355.645 121.127 355.285 121.34C354.925 121.54 354.645 121.827 354.445 122.2C354.245 122.56 354.145 122.973 354.145 123.44C354.145 123.893 354.245 124.307 354.445 124.68C354.645 125.04 354.925 125.327 355.285 125.54C355.645 125.753 356.065 125.86 356.545 125.86ZM363.687 128.5V118.84H366.327V128.5H363.687ZM365.007 117.28C364.581 117.28 364.227 117.14 363.947 116.86C363.667 116.567 363.527 116.207 363.527 115.78C363.527 115.367 363.667 115.013 363.947 114.72C364.227 114.427 364.581 114.28 365.007 114.28C365.447 114.28 365.801 114.427 366.067 114.72C366.347 115.013 366.487 115.367 366.487 115.78C366.487 116.207 366.347 116.567 366.067 116.86C365.801 117.14 365.447 117.28 365.007 117.28ZM370.068 128.5V114.82H372.688V128.5H370.068ZM367.808 121.14V118.84H374.948V121.14H367.808ZM380.227 128.7C379.347 128.7 378.554 128.48 377.847 128.04C377.141 127.6 376.587 127 376.187 126.24C375.787 125.48 375.587 124.627 375.587 123.68C375.587 122.72 375.787 121.86 376.187 121.1C376.587 120.34 377.141 119.74 377.847 119.3C378.554 118.86 379.347 118.64 380.227 118.64C380.921 118.64 381.541 118.78 382.087 119.06C382.634 119.34 383.067 119.733 383.387 120.24C383.721 120.733 383.901 121.293 383.927 121.92V125.4C383.901 126.04 383.721 126.607 383.387 127.1C383.067 127.593 382.634 127.987 382.087 128.28C381.541 128.56 380.921 128.7 380.227 128.7ZM380.707 126.28C381.441 126.28 382.034 126.04 382.487 125.56C382.941 125.067 383.167 124.433 383.167 123.66C383.167 123.153 383.061 122.707 382.847 122.32C382.647 121.92 382.361 121.613 381.987 121.4C381.627 121.173 381.201 121.06 380.707 121.06C380.227 121.06 379.801 121.173 379.427 121.4C379.067 121.613 378.781 121.92 378.567 122.32C378.367 122.707 378.267 123.153 378.267 123.66C378.267 124.18 378.367 124.64 378.567 125.04C378.781 125.427 379.067 125.733 379.427 125.96C379.801 126.173 380.227 126.28 380.707 126.28ZM383.027 128.5V125.9L383.447 123.54L383.027 121.22V118.84H385.627V128.5H383.027ZM387.945 128.5V114.04H390.565V128.5H387.945ZM397.507 128.7C396.493 128.7 395.593 128.487 394.807 128.06C394.02 127.62 393.393 127.02 392.927 126.26C392.473 125.5 392.247 124.633 392.247 123.66C392.247 122.7 392.467 121.847 392.907 121.1C393.36 120.34 393.973 119.74 394.747 119.3C395.52 118.847 396.38 118.62 397.327 118.62C398.26 118.62 399.08 118.833 399.787 119.26C400.507 119.673 401.067 120.247 401.467 120.98C401.88 121.7 402.087 122.52 402.087 123.44C402.087 123.613 402.073 123.793 402.047 123.98C402.033 124.153 402 124.353 401.947 124.58L393.827 124.6V122.64L400.727 122.62L399.667 123.44C399.64 122.867 399.533 122.387 399.347 122C399.173 121.613 398.913 121.32 398.567 121.12C398.233 120.907 397.82 120.8 397.327 120.8C396.807 120.8 396.353 120.92 395.967 121.16C395.58 121.387 395.28 121.713 395.067 122.14C394.867 122.553 394.767 123.047 394.767 123.62C394.767 124.207 394.873 124.72 395.087 125.16C395.313 125.587 395.633 125.92 396.047 126.16C396.46 126.387 396.94 126.5 397.487 126.5C397.98 126.5 398.427 126.42 398.827 126.26C399.227 126.087 399.573 125.833 399.867 125.5L401.407 127.04C400.94 127.587 400.367 128 399.687 128.28C399.02 128.56 398.293 128.7 397.507 128.7Z" fill="#00726C"/>
<path d="M200.526 179.5L197.474 172.85H198.874L201.324 178.464H200.512L202.976 172.85H204.32L201.268 179.5H200.526ZM208.215 179.64C207.552 179.64 206.955 179.491 206.423 179.192C205.891 178.884 205.471 178.469 205.163 177.946C204.855 177.423 204.701 176.831 204.701 176.168C204.701 175.515 204.85 174.927 205.149 174.404C205.457 173.881 205.868 173.471 206.381 173.172C206.904 172.864 207.487 172.71 208.131 172.71C208.747 172.71 209.288 172.85 209.755 173.13C210.231 173.41 210.6 173.797 210.861 174.292C211.132 174.787 211.267 175.347 211.267 175.972C211.267 176.065 211.262 176.168 211.253 176.28C211.244 176.383 211.225 176.504 211.197 176.644H205.583V175.594H210.525L210.063 176C210.063 175.552 209.984 175.174 209.825 174.866C209.666 174.549 209.442 174.306 209.153 174.138C208.864 173.961 208.514 173.872 208.103 173.872C207.674 173.872 207.296 173.965 206.969 174.152C206.642 174.339 206.39 174.6 206.213 174.936C206.036 175.272 205.947 175.669 205.947 176.126C205.947 176.593 206.04 177.003 206.227 177.358C206.414 177.703 206.68 177.974 207.025 178.17C207.37 178.357 207.767 178.45 208.215 178.45C208.588 178.45 208.929 178.385 209.237 178.254C209.554 178.123 209.825 177.927 210.049 177.666L210.861 178.492C210.544 178.865 210.152 179.15 209.685 179.346C209.228 179.542 208.738 179.64 208.215 179.64ZM212.641 179.5V172.85H213.901V179.5H212.641ZM213.901 175.706L213.425 175.496C213.425 174.647 213.621 173.97 214.013 173.466C214.405 172.962 214.969 172.71 215.707 172.71C216.043 172.71 216.346 172.771 216.617 172.892C216.887 173.004 217.139 173.195 217.373 173.466L216.547 174.32C216.407 174.171 216.253 174.063 216.085 173.998C215.917 173.933 215.721 173.9 215.497 173.9C215.03 173.9 214.647 174.049 214.349 174.348C214.05 174.647 213.901 175.099 213.901 175.706ZM218.532 179.64C218.271 179.64 218.051 179.551 217.874 179.374C217.706 179.187 217.622 178.968 217.622 178.716C217.622 178.455 217.706 178.24 217.874 178.072C218.051 177.895 218.271 177.806 218.532 177.806C218.793 177.806 219.008 177.895 219.176 178.072C219.353 178.24 219.442 178.455 219.442 178.716C219.442 178.968 219.353 179.187 219.176 179.374C219.008 179.551 218.793 179.64 218.532 179.64ZM223.937 178.702L227.521 174.922C227.885 174.549 228.169 174.227 228.375 173.956C228.58 173.676 228.725 173.419 228.809 173.186C228.902 172.953 228.949 172.71 228.949 172.458C228.949 171.963 228.79 171.576 228.473 171.296C228.155 171.016 227.745 170.876 227.241 170.876C226.746 170.876 226.312 170.997 225.939 171.24C225.565 171.473 225.234 171.837 224.945 172.332L224.021 171.562C224.403 170.927 224.865 170.451 225.407 170.134C225.948 169.807 226.573 169.644 227.283 169.644C227.88 169.644 228.398 169.761 228.837 169.994C229.285 170.227 229.63 170.554 229.873 170.974C230.115 171.394 230.237 171.884 230.237 172.444C230.237 172.845 230.185 173.205 230.083 173.522C229.989 173.839 229.817 174.166 229.565 174.502C229.322 174.829 228.981 175.221 228.543 175.678L225.645 178.66L223.937 178.702ZM223.937 179.5V178.702L225.057 178.324H230.461V179.5H223.937ZM233.079 179.64C232.817 179.64 232.598 179.551 232.421 179.374C232.253 179.187 232.169 178.968 232.169 178.716C232.169 178.455 232.253 178.24 232.421 178.072C232.598 177.895 232.817 177.806 233.079 177.806C233.34 177.806 233.555 177.895 233.723 178.072C233.9 178.24 233.989 178.455 233.989 178.716C233.989 178.968 233.9 179.187 233.723 179.374C233.555 179.551 233.34 179.64 233.079 179.64ZM236.383 179.5V169.784H237.685V179.5H236.383ZM234.395 170.96V169.784H237.545V170.96H234.395ZM240.844 179.64C240.583 179.64 240.364 179.551 240.186 179.374C240.018 179.187 239.934 178.968 239.934 178.716C239.934 178.455 240.018 178.24 240.186 178.072C240.364 177.895 240.583 177.806 240.844 177.806C241.106 177.806 241.32 177.895 241.488 178.072C241.666 178.24 241.754 178.455 241.754 178.716C241.754 178.968 241.666 179.187 241.488 179.374C241.32 179.551 241.106 179.64 240.844 179.64ZM247.112 179.64C246.384 179.64 245.717 179.435 245.11 179.024C244.513 178.613 244.037 178.035 243.682 177.288C243.328 176.532 243.15 175.645 243.15 174.628C243.15 173.611 243.323 172.729 243.668 171.982C244.023 171.235 244.499 170.661 245.096 170.26C245.694 169.849 246.352 169.644 247.07 169.644C247.808 169.644 248.475 169.849 249.072 170.26C249.67 170.661 250.141 171.235 250.486 171.982C250.841 172.729 251.018 173.615 251.018 174.642C251.018 175.659 250.841 176.546 250.486 177.302C250.141 178.049 249.67 178.627 249.072 179.038C248.484 179.439 247.831 179.64 247.112 179.64ZM247.084 178.394C247.598 178.394 248.046 178.254 248.428 177.974C248.82 177.685 249.128 177.26 249.352 176.7C249.576 176.14 249.688 175.449 249.688 174.628C249.688 173.807 249.576 173.121 249.352 172.57C249.128 172.01 248.82 171.59 248.428 171.31C248.036 171.021 247.584 170.876 247.07 170.876C246.566 170.876 246.118 171.021 245.726 171.31C245.334 171.59 245.026 172.01 244.802 172.57C244.588 173.121 244.48 173.807 244.48 174.628C244.48 175.449 244.588 176.14 244.802 176.7C245.026 177.26 245.334 177.685 245.726 177.974C246.118 178.254 246.571 178.394 247.084 178.394Z" fill="#00AFAC"/>
</svg>
